<?xml version="1.0" encoding="utf-8"?>
<!-- Generator: Adobe Illustrator 25.0.1, SVG Export Plug-In . SVG Version: 6.00 Build 0)  -->
<svg version="1.1" id="Layer_1" xmlns="http://www.w3.org/2000/svg" xmlns:xlink="http://www.w3.org/1999/xlink" x="0px" y="0px"
	 viewBox="0 0 50 50" style="enable-background:new 0 0 50 50;" xml:space="preserve">
<style type="text/css">
	.st0{fill:#272E69;}
</style>
<g>
	<g>
		<path class="st0" d="M35.95,41.21l-0.29,0.3l-0.29,0.3l-0.07-0.07l-0.84-0.87l-1.39-1.43H17.91l-4.27-4.4h-5.7
			c-0.09-0.14-0.17-0.28-0.26-0.43v-0.42h6.3l4.27,4.4H33.4L35.95,41.21z"/>
	</g>
	<g>
		<path class="st0" d="M44.83,29.01v0.42c-0.03,0.14-0.06,0.28-0.09,0.42h-4.95l-4.27-4.4h-0.36c0.01-0.15,0.01-0.3,0.01-0.44
			c0-0.14,0-0.27-0.01-0.41h0.7l0.46,0.47l3.81,3.93H44.83z"/>
	</g>
	<g>
		<path class="st0" d="M42.38,14.22v0.42h-8.86l-3.59-3.71H10.38v-0.42c0.13-0.14,0.27-0.28,0.41-0.42h19.49l3.59,3.71h8.26
			C42.21,13.94,42.3,14.08,42.38,14.22z"/>
	</g>
	<g>
		<path class="st0" d="M15.21,27.86H4.9c-0.02-0.14-0.04-0.28-0.05-0.42v-0.43h10.17C15.07,27.3,15.14,27.59,15.21,27.86z"/>
	</g>
	<g>
		<path class="st0" d="M16.45,19.33c-0.17,0.27-0.33,0.56-0.48,0.85H8.76l-2.81,2.9l-0.97,1H4.75v-0.42
			c0.01-0.2,0.03-0.39,0.04-0.59l3.62-3.74H16.45z"/>
	</g>
	<g>
		<path class="st0" d="M44.46,19.08v0.43H33.65c-0.18-0.29-0.37-0.57-0.57-0.85h11.25C44.38,18.79,44.42,18.93,44.46,19.08z"/>
	</g>
	<path class="st0" d="M34.98,19.5c-0.15-0.29-0.31-0.57-0.49-0.85c-2.02-3.19-5.52-5.31-9.49-5.31c-4.24,0-7.95,2.42-9.89,5.99
		c-0.15,0.28-0.29,0.56-0.42,0.85c-0.65,1.47-1.02,3.11-1.02,4.83c0,0.68,0.06,1.35,0.17,2c0.05,0.29,0.11,0.57,0.17,0.85
		c0.29,1.2,0.77,2.33,1.4,3.36c0.18,0.29,0.37,0.57,0.57,0.85c1.57,2.13,3.83,3.68,6.44,4.31c0.14,0.03,0.28,0.06,0.42,0.09
		c0.7,0.14,1.42,0.21,2.16,0.21c0.74,0,1.46-0.07,2.16-0.21c0.89-0.18,1.75-0.46,2.56-0.85c3.56-1.69,6.13-5.22,6.55-9.4
		c0.04-0.37,0.06-0.75,0.06-1.14v-0.07C36.32,23.02,35.83,21.14,34.98,19.5z M25,35.49c-0.9,0-1.77-0.12-2.6-0.35
		c-0.65-0.18-1.27-0.42-1.86-0.71c-1.16-0.59-2.19-1.39-3.05-2.36c-0.24-0.27-0.46-0.55-0.67-0.85c-0.72-1-1.26-2.13-1.6-3.36
		c-0.08-0.28-0.14-0.56-0.2-0.85c-0.12-0.65-0.19-1.32-0.19-2c0-1.74,0.41-3.38,1.15-4.83c0.15-0.29,0.31-0.57,0.48-0.85
		c1.81-2.89,4.97-4.81,8.55-4.81c3.29,0,6.22,1.62,8.08,4.13c0.2,0.27,0.39,0.55,0.57,0.85c0.9,1.49,1.44,3.24,1.51,5.1
		c0,0.13,0.01,0.27,0.01,0.41c0,0.15,0,0.3-0.01,0.44C34.93,31.03,30.46,35.49,25,35.49z"/>
	<g>
		<g>
			<path class="st0" d="M44.46,19.08c-0.04-0.14-0.08-0.28-0.13-0.42c-0.49-1.56-1.14-3.05-1.95-4.43
				c-0.08-0.14-0.17-0.28-0.26-0.42C38.52,7.97,32.19,4.09,25,4.09c-5.53,0-10.55,2.29-14.22,6.01c-0.14,0.14-0.27,0.28-0.41,0.42
				c-3.1,3.32-5.15,7.7-5.58,12.55c-0.02,0.2-0.03,0.39-0.04,0.59C4.73,24.1,4.71,24.55,4.71,25c0,0.83,0.05,1.64,0.14,2.44
				c0.01,0.14,0.03,0.28,0.05,0.42c0.17,1.3,0.46,2.57,0.86,3.78c0.05,0.14,0.09,0.28,0.14,0.42c0.47,1.34,1.06,2.62,1.78,3.81
				c0.08,0.14,0.17,0.28,0.26,0.43c3.61,5.77,9.91,9.61,17.06,9.61c3.76,0,7.28-1.06,10.3-2.9c0.12-0.07,0.24-0.15,0.36-0.22
				c1.77-1.13,3.35-2.53,4.71-4.15c0.09-0.11,0.18-0.22,0.26-0.32c1.95-2.42,3.38-5.31,4.11-8.46c0.03-0.14,0.06-0.28,0.09-0.42
				c0.3-1.43,0.46-2.91,0.46-4.43C45.29,22.94,45,20.95,44.46,19.08z M39.81,37.48c-0.17,0.22-0.35,0.44-0.54,0.65
				c-1.19,1.38-2.57,2.58-4.09,3.57c-0.24,0.16-0.48,0.31-0.73,0.45c-2.79,1.64-6.02,2.58-9.45,2.58c-6.47,0-12.21-3.33-15.67-8.42
				c-0.19-0.28-0.37-0.56-0.55-0.85c-0.65-1.07-1.2-2.2-1.65-3.39c-0.11-0.28-0.21-0.56-0.3-0.85c-0.35-1.08-0.61-2.2-0.77-3.36
				c-0.04-0.28-0.08-0.56-0.1-0.85c-0.07-0.66-0.1-1.34-0.1-2.02c0-0.65,0.03-1.29,0.09-1.92c0.04-0.47,0.1-0.93,0.18-1.39
				c0.69-4.17,2.65-7.91,5.46-10.75c0.29-0.29,0.58-0.58,0.89-0.85c3.36-3,7.74-4.82,12.52-4.82c6.52,0,12.29,3.38,15.74,8.53
				c0.19,0.28,0.37,0.56,0.54,0.85c0.75,1.25,1.37,2.59,1.84,4.01c0.09,0.28,0.18,0.56,0.26,0.85c0.49,1.75,0.76,3.59,0.76,5.5
				c0,1.37-0.14,2.71-0.4,4.01c-0.06,0.28-0.12,0.57-0.19,0.85C42.85,32.69,41.56,35.28,39.81,37.48z"/>
		</g>
	</g>
	<g>
		<path class="st0" d="M32.01,24.61c-0.2-3.8-3.27-6.83-7.01-6.83c-3.87,0-7.02,3.25-7.02,7.24c0,0.7,0.1,1.37,0.27,2
			c0.08,0.29,0.18,0.57,0.3,0.85c1.08,2.58,3.57,4.39,6.46,4.39c3.73,0,6.79-3.01,7.01-6.8c0.01-0.15,0.01-0.29,0.01-0.44
			C32.02,24.88,32.02,24.74,32.01,24.61z M25,31.06c-2.24,0-4.19-1.3-5.18-3.2c-0.14-0.27-0.26-0.55-0.36-0.85
			c-0.22-0.63-0.33-1.3-0.33-2c0-3.34,2.63-6.05,5.87-6.05c3.11,0,5.66,2.5,5.86,5.65c0.01,0.13,0.01,0.27,0.01,0.41
			c0,0.15,0,0.3-0.01,0.44C30.64,28.59,28.09,31.06,25,31.06z"/>
	</g>
	<g>
		<ellipse class="st0" cx="25" cy="25.01" rx="3.22" ry="3.32"/>
	</g>
</g>
</svg>
