<?xml version="1.0" encoding="utf-8"?>
<!-- Generator: Adobe Illustrator 25.0.1, SVG Export Plug-In . SVG Version: 6.00 Build 0)  -->
<svg version="1.1" id="Layer_1" xmlns="http://www.w3.org/2000/svg" xmlns:xlink="http://www.w3.org/1999/xlink" x="0px" y="0px"
	 viewBox="0 0 178 50" style="enable-background:new 0 0 178 50;" xml:space="preserve">
<style type="text/css">
	.st0{fill:#000;}
</style>
<g>
	<g>
		<path class="st0" d="M36.2,20.08c0-0.22-0.07-0.41-0.21-0.56c-0.14-0.15-0.33-0.23-0.58-0.23h-1.94c-0.22,0-0.4,0.08-0.54,0.23
			c-0.14,0.15-0.21,0.34-0.21,0.56c0.03,1.08,0.05,2.06,0.06,2.96c0.01,0.9,0.02,1.77,0.02,2.63c0,0.86,0,1.71,0,2.56
			c0,0.85,0,1.76,0,2.73c0,0.72-0.11,1.14-0.33,1.28c-0.22,0.14-0.72,0.21-1.49,0.21h-3.18l0,0l-0.74-0.74v0l-1.57-1.57l-0.73-0.73
			l-0.54-0.54l-1.4-1.4v0l-1.73-1.73l-0.56-0.56l3.88-3.88c0.07-0.07,0.11-0.17,0.11-0.27V14.1c0.96-0.21,1.67-1.05,1.67-2.07
			c0-0.22-0.03-0.44-0.1-0.64c0,0,0-0.01,0-0.01c0,0,0-0.01,0-0.01c-0.24-0.85-1.03-1.47-1.95-1.47h-0.03c-0.01,0-0.02,0-0.03,0
			c0,0,0,0-0.01,0c-0.01,0-0.02,0-0.03,0c-0.01,0-0.02,0-0.04,0c0,0-0.01,0-0.01,0c-1.13,0.04-2.04,0.97-2.04,2.12
			c0,1.06,0.78,1.94,1.8,2.09v6.73l-3.02,3.01l-0.75,0.75l-1.75-1.75l-1.38-1.38c0.32-0.36,0.52-0.82,0.52-1.33
			c0-0.03,0-0.05,0-0.07c0,0,0,0,0,0v-0.02c0,0,0,0,0-0.01c0.01-0.06,0.01-0.12,0.01-0.19c0-1.17-0.95-2.12-2.12-2.12
			c-1.17,0-2.12,0.95-2.12,2.12c0,0.44,0.14,0.86,0.37,1.2c0,0,0,0,0,0c0,0,0,0,0,0.01c0.34,0.67,1.03,1.13,1.82,1.13
			c0.32,0,0.62-0.1,0.89-0.23l5.77,5.77l-4.7,4.7c-1.73-0.05-3.15-0.25-4.26-0.58c-1.31-0.4-2.32-0.97-3.02-1.72
			c-0.7-0.74-1.17-1.63-1.39-2.65c-0.22-1.02-0.33-2.15-0.33-3.39c0-0.47,0.01-0.92,0.04-1.36c0.03-0.44,0.07-0.98,0.12-1.61
			c0.05-0.55-0.15-0.83-0.62-0.83H6.13c-0.47,0-0.74,0.26-0.83,0.79c-0.14,0.8-0.23,1.51-0.27,2.13C5,23.82,4.98,24.42,4.98,25
			c0,1.68,0.19,3.21,0.56,4.57c0.37,1.36,1.05,2.52,2.03,3.47c0.98,0.95,2.32,1.68,4.01,2.19c1.7,0.51,3.87,0.77,6.51,0.77h9.68
			c0.77,0,1.55-0.01,2.34-0.02c0.79-0.01,1.52-0.04,2.19-0.08c0.68-0.04,1.27-0.08,1.78-0.12c0.51-0.04,0.88-0.1,1.1-0.19
			c0.33-0.14,0.56-0.3,0.68-0.5c0.12-0.19,0.21-0.43,0.27-0.7c0.08-0.63,0.13-1.52,0.14-2.65c0.01-1.13,0.02-2.36,0.02-3.68
			c0-0.83,0-1.54,0-2.13c0-0.59,0-1.16,0-1.72c0-0.55-0.01-1.14-0.02-1.78C36.25,21.8,36.23,21.01,36.2,20.08z M22.56,28.28
			l1.04,1.03l3.13,3.13l0,0h-8.33l0,0L22.56,28.28z"/>
		<path class="st0" d="M58.58,20.04c0-0.22-0.07-0.41-0.21-0.56c-0.14-0.15-0.33-0.23-0.58-0.23h-1.99c-0.22,0-0.39,0.08-0.52,0.23
			c-0.12,0.15-0.19,0.34-0.19,0.56c0.03,1.08,0.05,2.07,0.06,2.98c0.01,0.91,0.02,1.79,0.02,2.65c0,0.86,0,1.71,0,2.56
			c0,0.85,0,1.76,0,2.73c0,0.72-0.11,1.14-0.33,1.28c-0.22,0.14-0.73,0.21-1.53,0.21h-2.65h-0.25h-0.79c-0.44,0-0.83-0.03-1.18-0.08
			c-0.35-0.05-0.63-0.17-0.87-0.33c-0.23-0.17-0.41-0.41-0.54-0.72c-0.12-0.32-0.19-0.75-0.19-1.3V5.72c0-0.22-0.07-0.41-0.21-0.58
			c-0.14-0.17-0.32-0.25-0.54-0.25H44.1c-0.22,0-0.41,0.08-0.56,0.25c-0.15,0.17-0.23,0.36-0.23,0.58v25.06
			c0,1.05,0.12,1.9,0.35,2.56c0.23,0.66,0.59,1.19,1.05,1.59c0.47,0.4,1.03,0.68,1.7,0.83c0.66,0.15,1.43,0.23,2.32,0.23h1.7h0.25
			h1.61c0.47,0,0.96-0.01,1.49-0.02c0.52-0.01,1.03-0.04,1.53-0.08c0.5-0.04,0.94-0.08,1.32-0.12c0.39-0.04,0.69-0.1,0.91-0.19
			c0.33-0.14,0.56-0.3,0.68-0.5c0.12-0.19,0.21-0.43,0.27-0.7c0.08-0.63,0.13-1.52,0.14-2.65c0.01-1.13,0.02-2.36,0.02-3.68
			c0-0.83,0-1.54,0-2.13c0-0.59,0-1.17,0-1.74c0-0.56-0.01-1.16-0.02-1.8C58.62,21.76,58.6,20.97,58.58,20.04z"/>
		<path class="st0" d="M171.97,19.12c-0.7-1.43-1.65-2.58-2.83-3.43c-1.19-0.85-2.55-1.45-4.09-1.78c-1.54-0.33-3.16-0.5-4.84-0.5
			c-0.3,0-0.77,0.01-1.39,0.02c-0.62,0.01-1.26,0.08-1.92,0.19c-0.52,0.11-0.79,0.39-0.79,0.83v1.74c0,0.42,0.27,0.59,0.83,0.54
			c0.44-0.03,1-0.04,1.68-0.04h1.63c1.35,0,2.6,0.14,3.74,0.41c1.14,0.27,2.13,0.74,2.96,1.39c0.83,0.65,1.47,1.5,1.92,2.56
			c0.46,1.06,0.68,4.34,0.68,5.94v2.07c0,0.74-0.02,1.34-0.06,1.8c-0.04,0.46-0.1,0.81-0.19,1.05c-0.08,0.25-0.2,0.41-0.35,0.48
			c-0.15,0.07-0.34,0.1-0.56,0.1h-5.09c0.22-0.23,0.42-0.48,0.61-0.74c0.06-0.09,0.13-0.18,0.19-0.27c0.76-1.11,1.24-2.41,1.38-3.79
			c0.03-0.28,0.04-0.57,0.04-0.87c0-0.05,0-0.1,0-0.15c-0.05-2.72-1.41-5.22-3.67-6.73c-0.01-0.01-0.02-0.02-0.03-0.02l-0.34-0.21
			l-0.12-0.07c-1.07-0.61-2.25-0.98-3.48-1.07c-0.16-0.01-0.32-0.02-0.48-0.02c-0.05,0-0.1,0-0.16,0c-0.12,0-0.25,0-0.37,0.01
			c-0.16,0.01-0.32,0.02-0.48,0.04c-1.35,0.13-2.63,0.6-3.77,1.36c-2.3,1.54-3.67,4.12-3.67,6.89c0,2.14,0.8,4.12,2.19,5.62h-5.55
			c-0.44,0-0.83-0.03-1.18-0.08c-0.35-0.06-0.63-0.17-0.87-0.33c-0.23-0.17-0.41-0.41-0.54-0.72c-0.12-0.32-0.19-0.75-0.19-1.3V5.72
			c0-0.22-0.07-0.41-0.21-0.58c-0.14-0.16-0.32-0.25-0.54-0.25h-2.03c-0.22,0-0.41,0.08-0.56,0.25c-0.15,0.17-0.23,0.36-0.23,0.58
			v25.07c0,1.05,0.12,1.9,0.35,2.56c0.23,0.66,0.58,1.19,1.05,1.59c0.47,0.4,1.03,0.68,1.7,0.83c0.66,0.15,1.43,0.23,2.31,0.23
			h20.06c0.65,0,1.3,0,1.95-0.01l0.44-0.01c0.8-0.01,1.56-0.03,2.28-0.04c0.72-0.01,1.27-0.05,1.65-0.1
			c0.47-0.05,0.81-0.21,1.03-0.48c0.22-0.26,0.36-0.53,0.41-0.81c0.22-0.91,0.36-1.92,0.41-3.02c0.06-1.1,0.08-2.09,0.08-2.98v-2.07
			C173.02,24.31,172.67,20.55,171.97,19.12z M152.16,24.59c0.29-0.66,0.71-1.27,1.24-1.78h5.1l1.01,1.04h2.18
			c0.21,0.35,0.39,0.73,0.52,1.13h-2.43c-0.57-0.9-1.55-1.49-2.67-1.49c-1.19,0-2.24,0.68-2.78,1.69h-1.88l-0.64,0.66
			C151.87,25.4,152,24.98,152.16,24.59z M162.49,26.77c0,0.39-0.04,0.76-0.11,1.13h-1.01l-1.07-1.1v-0.02
			c0-0.56-0.14-1.09-0.38-1.55h2.36C162.41,25.71,162.49,26.23,162.49,26.77z M157.11,32.31c-1.82,0-3.43-0.94-4.41-2.37
			c-0.05-0.08-0.11-0.16-0.15-0.24c-0.02-0.04-0.04-0.08-0.07-0.12h1.43l1.2,1.24h4.26l0.39,0.4l0.22,0.22c0,0-0.01,0.01-0.01,0.01
			c-0.07,0.04-0.14,0.09-0.2,0.13C158.98,32.05,158.07,32.31,157.11,32.31z M154.25,26.77c0-0.49,0.12-0.95,0.32-1.36
			c0.04-0.08,0.09-0.16,0.13-0.24c0.51-0.81,1.4-1.35,2.4-1.35c0.93,0,1.75,0.46,2.27,1.16c0.06,0.08,0.11,0.16,0.16,0.24
			c0.25,0.42,0.41,0.91,0.43,1.44c0,0.04,0,0.08,0,0.11c0,0.04,0,0.08,0,0.12c-0.06,1.57-1.32,2.82-2.86,2.82
			c-0.25,0-0.5-0.03-0.73-0.1c-0.18-0.05-0.36-0.12-0.52-0.2c-0.33-0.16-0.62-0.39-0.86-0.66c-0.07-0.08-0.13-0.16-0.19-0.24
			c-0.2-0.28-0.35-0.6-0.45-0.94c-0.02-0.08-0.04-0.16-0.06-0.24C154.27,27.15,154.25,26.96,154.25,26.77z M154.41,28.52
			c0.05,0.08,0.1,0.16,0.16,0.24c0.44,0.6,1.08,1.04,1.81,1.21c0.04,0.01,0.08,0.02,0.12,0.03c0.2,0.04,0.4,0.06,0.61,0.06
			c0.21,0,0.41-0.02,0.61-0.06c0.25-0.05,0.49-0.13,0.72-0.24c1-0.47,1.72-1.47,1.84-2.64v0l0.99,1.02h1.06
			c-0.2,0.8-0.56,1.53-1.05,2.14c-0.05,0.06-0.1,0.12-0.15,0.18c-0.28,0.32-0.6,0.61-0.94,0.86l-0.71-0.73h-4.26l-1.2-1.24h-1.66
			c-0.1-0.19-0.19-0.39-0.27-0.6c-0.03-0.08-0.06-0.16-0.08-0.24c-0.1-0.3-0.17-0.62-0.22-0.94h2.24
			C154.1,27.91,154.24,28.23,154.41,28.52z M152.54,25.41h1.67c-0.18,0.41-0.29,0.87-0.29,1.36c0,0.19,0.02,0.38,0.05,0.56h-2.22
			c-0.02-0.19-0.03-0.38-0.03-0.57c0-0.18,0.01-0.36,0.03-0.54L152.54,25.41z M161.53,23.62h-1.93l-1.01-1.04h-4.92
			c0.16-0.13,0.32-0.26,0.49-0.38c0.42-0.28,0.88-0.51,1.35-0.66c0.11-0.04,0.22-0.07,0.33-0.1c0.34-0.09,0.69-0.14,1.04-0.17
			c0.11-0.01,0.22-0.01,0.33-0.01h0.05c0.42,0,0.83,0.05,1.24,0.14C159.74,21.75,160.82,22.55,161.53,23.62z"/>
		<circle class="st0" cx="56.73" cy="11.54" r="2.11"/>
		<circle class="st0" cx="87.28" cy="11.78" r="2.11"/>
		<circle class="st0" cx="94.09" cy="11.78" r="2.11"/>
		<circle class="st0" cx="90.8" cy="6.61" r="2.11"/>
		<path class="st0" d="M155.29,27.57c0.3,0.72,1,1.23,1.82,1.23c1.05,0,1.91-0.85,1.97-1.91c0-0.04,0-0.08,0-0.12
			c0-0.04,0-0.08,0-0.11c-0.06-1.07-0.92-1.92-1.97-1.92c-1.09,0-1.98,0.91-1.98,2.04c0,0.2,0.03,0.38,0.08,0.56
			C155.23,27.41,155.26,27.49,155.29,27.57z M157.11,25.07c0.87,0,1.59,0.7,1.65,1.59c0,0.04,0,0.08,0,0.11c0,0.04,0,0.08,0,0.12
			c-0.06,0.88-0.78,1.58-1.65,1.58c-0.63,0-1.18-0.36-1.46-0.9c-0.04-0.08-0.07-0.16-0.1-0.24c-0.06-0.18-0.09-0.37-0.09-0.56
			C155.46,25.83,156.2,25.07,157.11,25.07z"/>
		<path class="st0" d="M157.11,27.7c0.5,0,0.91-0.42,0.91-0.93c0-0.52-0.41-0.93-0.91-0.93c-0.5,0-0.91,0.42-0.91,0.93
			C156.2,27.29,156.61,27.7,157.11,27.7z"/>
	</g>
	<g>
		<path class="st0" d="M92.83,19.8c0-0.22-0.07-0.41-0.21-0.56c-0.14-0.15-0.33-0.23-0.58-0.23h-1.99c-0.22,0-0.39,0.08-0.52,0.23
			c-0.12,0.15-0.19,0.34-0.19,0.56c0.03,1.08,0.05,2.08,0.06,2.99c0.01,0.91,0.02,1.8,0.02,2.66c0,0.86,0,1.72,0,2.57
			c0,0.86,0,1.77,0,2.74c0,0.72-0.11,1.15-0.33,1.29c-0.22,0.14-0.73,0.21-1.54,0.21H84.9h-0.25h-3.36v-14.2
			c0-0.22-0.04-0.38-0.12-0.48c-0.08-0.1-0.25-0.19-0.5-0.27c-0.72-0.22-1.6-0.38-2.64-0.48c-1.04-0.1-2.11-0.15-3.22-0.15
			c-3.16,0-5.59,0.84-7.31,2.53c-1.72,1.69-2.57,3.99-2.57,6.89v1.04c0,2.91,0.75,5.08,2.24,6.52c1.5,1.44,3.64,2.16,6.44,2.16h4.15
			v1.67c-0.03,1-0.21,1.82-0.54,2.44c-0.33,0.63-0.81,1.11-1.43,1.46c-0.62,0.35-1.37,0.58-2.24,0.71
			c-0.87,0.13-1.86,0.19-2.97,0.19c-0.44,0-1.02-0.01-1.74-0.02c-0.72-0.01-1.32-0.02-1.79-0.02c-0.44,0-0.66,0.19-0.66,0.57v1.8
			c0,0.19,0.04,0.33,0.12,0.43c0.08,0.1,0.26,0.17,0.54,0.23c0.14,0.03,0.39,0.05,0.75,0.08c0.36,0.03,0.75,0.05,1.18,0.06
			c0.43,0.01,0.86,0.03,1.29,0.04c0.43,0.01,0.78,0.02,1.06,0.02c1.44,0,2.76-0.13,3.97-0.39c1.2-0.26,2.24-0.71,3.09-1.33
			c0.86-0.62,1.54-1.45,2.03-2.49s0.77-2.33,0.83-3.88v-1.58h3.41h0.25h1.62c0.47,0,0.97-0.01,1.5-0.02
			c0.53-0.01,1.04-0.04,1.54-0.08c0.5-0.04,0.94-0.08,1.33-0.12c0.39-0.04,0.69-0.1,0.91-0.19c0.33-0.14,0.56-0.3,0.69-0.5
			c0.12-0.19,0.21-0.43,0.27-0.71c0.08-0.64,0.13-1.52,0.15-2.66c0.01-1.13,0.02-2.37,0.02-3.7c0-0.83,0-1.54,0-2.14
			c0-0.6,0-1.18,0-1.74c0-0.57-0.01-1.17-0.02-1.81C92.88,21.53,92.86,20.74,92.83,19.8z M77.8,32.34h-4.11
			c-1.86,0-3.2-0.44-4.03-1.33c-0.83-0.89-1.25-2.31-1.25-4.28v-0.83c0-1.91,0.53-3.38,1.6-4.4c1.07-1.02,2.51-1.54,4.34-1.54
			c0.69,0,1.3,0.01,1.83,0.04c0.53,0.03,1.07,0.07,1.62,0.12V32.34z"/>
		<path class="st0" d="M129.17,32.18c0.08-1.33,0.12-2.67,0.12-4.03c0-1.5-0.22-2.73-0.66-3.72c-0.44-0.98-1.07-1.76-1.87-2.33
			c-0.8-0.57-1.77-0.96-2.91-1.18c-1.14-0.22-2.39-0.33-3.78-0.33c-0.83,0-1.7,0.01-2.6,0.02c-0.9,0.01-1.74,0.02-2.51,0.02
			c-0.78,0-1.44,0.01-1.99,0.02c-0.55,0.01-0.91,0.02-1.08,0.02c-0.47,0-0.75-0.21-0.83-0.62c-0.03-0.06-0.04-0.2-0.04-0.44
			c0-0.23,0-0.38,0-0.44c0-0.66,0.06-1.3,0.17-1.91c0.11-0.61,0.27-1.23,0.48-1.87c0.21-0.64,0.47-1.3,0.79-1.99
			c0.32-0.69,0.7-1.44,1.14-2.24l3.11-5.69c0.14-0.22,0.28-0.42,0.44-0.58c0.15-0.17,0.38-0.25,0.69-0.25h1.95
			c0.22,0,0.38,0.05,0.48,0.15c0.1,0.1,0.15,0.22,0.15,0.35c0,0.14-0.04,0.29-0.12,0.46l-3.9,7.42c-0.47,0.86-0.87,1.71-1.18,2.54
			c-0.32,0.83-0.49,1.43-0.52,1.79c1.36-0.06,2.48-0.1,3.36-0.12c0.89-0.03,1.69-0.04,2.41-0.04c4.1,0,7.18,0.86,9.24,2.59
			c2.06,1.73,3.09,4.55,3.09,8.47v0.7c0,0.39-0.01,0.85-0.02,1.39c-0.01,0.54-0.03,1.08-0.04,1.64c-0.01,0.55-0.04,1.08-0.08,1.59
			c-0.04,0.51-0.08,0.92-0.1,1.22c-0.08,0.52-0.39,0.8-0.91,0.83c-0.44,0.06-1,0.09-1.66,0.1c-0.66,0.01-1.38,0.04-2.14,0.06
			c-0.76,0.03-1.53,0.04-2.3,0.04c-0.78,0-1.5,0-2.16,0H107.7h-0.25h-1.7c-0.89,0-1.66-0.08-2.33-0.23
			c-0.66-0.15-1.23-0.43-1.7-0.83c-0.47-0.4-0.82-0.93-1.06-1.6c-0.24-0.66-0.35-1.52-0.35-2.57V5.43c0-0.22,0.08-0.42,0.23-0.58
			c0.15-0.17,0.34-0.25,0.56-0.25h2.03c0.22,0,0.4,0.08,0.54,0.25c0.14,0.17,0.21,0.36,0.21,0.58v24.38c0,0.55,0.06,0.99,0.19,1.31
			c0.12,0.32,0.3,0.56,0.54,0.73c0.23,0.17,0.53,0.28,0.87,0.33c0.35,0.06,0.74,0.08,1.18,0.08h0.79L129.17,32.18z"/>
	</g>
</g>
</svg>
